<svg width="1257" height="202" viewBox="0 0 1257 202" fill="none" xmlns="http://www.w3.org/2000/svg">
<path d="M240.831 69.2371H254.648V93.6578H280.114V69.2371H293.931V131.228H280.114V106.271H254.648V131.228H240.831V69.2371ZM330.776 69.2371H377.916V81.3133H344.322V93.9262H373.853V106.002H344.322V118.884H378.187V130.96H330.776V69.2371ZM448.356 105.197L439.957 85.0703L431.558 105.197H448.356ZM433.997 68.7005H446.73L473.551 130.96H459.192L453.503 117.005H426.953L421.264 130.96H407.176L433.997 68.7005ZM529.361 118.615C532.07 118.615 534.779 118.078 536.946 117.273C539.385 116.468 541.281 115.127 542.907 113.516C544.532 111.906 545.887 110.028 546.699 107.613C547.512 105.466 548.054 102.782 548.054 100.098V99.83C548.054 97.1464 547.512 94.7312 546.699 92.316C545.887 89.9008 544.532 88.0222 542.907 86.4121C541.281 84.8019 539.385 83.4601 536.946 82.6551C534.508 81.85 532.07 81.3133 529.361 81.3133H518.795V118.615H529.361ZM504.978 69.2371H529.361C534.237 69.2371 538.843 70.0422 542.907 71.6523C546.971 73.2625 550.492 75.4094 553.472 78.093C556.452 80.7766 558.62 83.9969 560.245 87.7539C561.871 91.5109 562.684 95.5363 562.684 99.83V100.098C562.684 104.392 561.871 108.418 560.245 112.175C558.62 115.932 556.452 119.152 553.472 122.104C550.492 124.787 546.971 126.934 542.907 128.544C538.843 130.155 534.237 130.96 529.361 130.96H504.978V69.2371ZM627.434 122.104C629.601 122.104 631.497 121.835 633.123 121.299C635.019 120.762 636.645 119.957 638 119.152L627.163 110.028L634.207 101.977L645.043 111.638C647.211 108.418 648.294 104.661 648.294 100.098V99.83C648.294 96.8781 647.753 93.9262 646.669 91.2426C645.585 88.559 644.231 86.1438 642.334 84.2652C640.438 82.3867 638.27 80.7766 635.561 79.4348C632.852 78.3614 630.143 77.5563 626.892 77.5563C623.912 77.5563 620.931 78.093 618.493 79.1664C615.784 80.2399 613.617 81.85 611.991 83.7285C610.095 85.607 608.74 88.0223 607.656 90.7058C606.573 93.3894 606.031 96.0731 606.031 99.2934V99.5617C606.031 102.514 606.573 105.466 607.656 108.149C608.74 110.833 610.095 113.248 611.991 115.127C613.888 117.005 616.055 118.615 618.764 119.957C621.474 121.567 624.453 122.104 627.434 122.104ZM646.398 126.129C643.689 128.008 640.709 129.35 637.729 130.423C634.478 131.496 631.227 132.033 627.434 132.033C622.557 132.033 618.222 131.228 614.158 129.618C610.095 128.008 606.844 125.592 603.864 122.641C600.884 119.689 598.716 116.468 597.091 112.443C595.465 108.686 594.652 104.392 594.652 100.098V99.83C594.652 95.5363 595.465 91.2426 597.091 87.4856C598.716 83.7286 600.884 80.2398 603.864 77.2879C606.844 74.3359 610.366 71.9207 614.158 70.3105C618.222 68.7004 622.557 67.627 627.434 67.627C632.31 67.627 636.645 68.4321 640.709 70.0422C644.773 71.6524 648.023 74.0676 651.004 77.0195C653.984 79.9715 656.151 83.1918 657.777 87.2172C659.402 90.9742 660.215 95.268 660.215 99.5617V99.83C660.215 103.319 659.673 106.807 658.589 110.028C657.506 113.248 655.88 116.2 653.984 118.884L661.028 124.787L653.984 132.57L646.398 126.129ZM720.901 132.033C716.837 132.033 713.315 131.496 709.793 130.423C706.542 129.35 703.833 127.471 701.395 125.324C698.956 122.909 697.331 120.225 695.976 116.737C694.622 113.248 694.08 109.491 694.08 104.929V69.2371H704.917V104.392C704.917 110.296 706.271 114.59 709.251 117.542C711.961 120.494 716.024 122.104 720.901 122.104C725.778 122.104 729.57 120.762 732.551 117.81C735.26 114.858 736.885 110.564 736.885 104.929V69.2371H747.722V104.392C747.722 108.954 747.18 112.98 745.826 116.468C744.471 119.957 742.846 122.909 740.407 125.056C737.969 127.471 735.26 129.081 732.009 130.155C728.758 131.496 725.236 132.033 720.901 132.033ZM822.767 106.539L811.93 81.85L801.093 106.539H822.767ZM807.053 68.7005H817.348L844.982 130.96H833.333L827.102 115.932H797.571L791.069 130.96H779.691L807.053 68.7005ZM904.585 99.83C908.648 99.83 911.629 99.025 914.067 97.1464C916.505 95.2679 917.589 92.8527 917.589 89.6324V89.364C917.589 85.8754 916.505 83.4602 914.067 81.5817C911.899 79.7031 908.648 78.8981 904.585 78.8981H888.6V99.83H904.585ZM877.493 69.2371H905.397C909.19 69.2371 912.712 69.7739 915.963 70.8473C918.943 71.9207 921.653 73.5309 923.549 75.4094C925.175 77.0196 926.529 79.1664 927.342 81.3133C928.155 83.4601 928.697 86.1438 928.697 88.8274V89.0957C928.697 91.5109 928.426 93.9262 927.613 96.073C926.8 98.2199 925.716 99.83 924.633 101.44C923.278 103.05 921.653 104.392 920.027 105.466C918.131 106.539 916.234 107.344 914.067 107.881L930.864 131.228H917.86L902.417 109.759H902.146H888.6V131.228H877.764L877.493 69.2371ZM979.359 79.1664H959.581V68.9687H1010.24V79.1664H990.466V130.96H979.359V79.1664ZM1043.84 69.2371H1090.16V79.1664H1054.67V94.9996H1086.1V104.661H1054.67V121.299H1090.44V131.228H1043.84V69.2371ZM1152.75 99.83C1156.81 99.83 1159.79 99.025 1162.23 97.1464C1164.67 95.2679 1165.75 92.8527 1165.75 89.6324V89.364C1165.75 85.8754 1164.67 83.4602 1162.23 81.5817C1160.06 79.7031 1156.81 78.8981 1152.75 78.8981H1136.76V99.83H1152.75ZM1125.93 69.2371H1153.83C1157.89 69.2371 1161.15 69.7739 1164.4 70.8473C1167.38 71.9207 1170.09 73.5309 1171.98 75.4094C1173.61 77.0196 1174.96 79.1664 1175.78 81.3133C1176.59 83.4601 1177.13 86.1438 1177.13 88.8274V89.0957C1177.13 91.5109 1176.86 93.9262 1176.05 96.073C1175.23 98.2199 1174.15 99.83 1173.07 101.44C1171.71 103.05 1170.09 104.392 1168.46 105.466C1166.56 106.539 1164.67 107.344 1162.5 107.881L1179.3 131.228H1166.29L1150.85 109.759H1150.58H1137.03V131.228H1126.2L1125.93 69.2371ZM1234.29 132.033C1229.42 132.033 1224.81 131.228 1220.48 129.618C1216.14 128.008 1212.08 125.593 1208.29 122.104L1214.79 114.321C1217.77 117.005 1221.02 118.884 1224 120.225C1226.98 121.567 1230.5 122.372 1234.57 122.372C1238.09 122.372 1240.53 121.567 1242.69 120.225C1244.59 118.884 1245.67 117.005 1245.67 114.59V114.321C1245.67 113.248 1245.4 112.175 1245.13 111.37C1244.86 110.564 1244.05 109.759 1242.96 108.954C1241.88 108.149 1240.53 107.612 1238.63 106.807C1236.73 106.271 1234.57 105.466 1231.58 104.929C1228.33 104.124 1225.35 103.319 1222.64 102.245C1219.94 101.172 1217.77 100.098 1216.14 98.7566C1214.52 97.4148 1213.16 95.8047 1212.08 93.6578C1211.27 91.7793 1210.72 89.364 1210.72 86.4121V86.1438C1210.72 83.4602 1211.27 81.0449 1212.35 78.8981C1213.43 76.7512 1214.79 74.8727 1216.68 73.2625C1218.58 71.6524 1220.75 70.5789 1223.46 69.5055C1226.17 68.7004 1228.88 68.1637 1232.13 68.1637C1236.73 68.1637 1240.8 68.7005 1244.59 70.0422C1248.38 71.384 1251.63 73.2625 1254.88 75.9461L1248.92 84.2652C1245.94 82.1184 1243.23 80.5083 1240.53 79.4348C1237.82 78.3614 1234.84 77.8246 1232.13 77.8246C1228.88 77.8246 1226.44 78.6297 1224.54 79.9715C1222.64 81.3133 1221.83 83.1918 1221.83 85.0703V85.3387C1221.83 86.4121 1222.1 87.4856 1222.37 88.559C1222.92 89.3641 1223.46 90.1691 1224.54 90.9742C1225.62 91.7793 1227.25 92.316 1229.15 93.1211C1231.04 93.6578 1233.48 94.4629 1236.46 95.268C1239.71 96.0731 1242.69 96.8781 1245.13 97.9516C1247.57 99.025 1249.74 100.098 1251.36 101.709C1252.99 103.05 1254.34 104.929 1255.16 106.807C1255.97 108.686 1256.51 110.833 1256.51 113.516V113.785C1256.51 116.737 1255.97 119.152 1254.88 121.567C1253.8 123.982 1252.17 125.861 1250.28 127.471C1248.38 129.081 1245.94 130.155 1243.23 131.228C1240.53 131.496 1237.55 132.033 1234.29 132.033Z" fill="#4295A5"/>
<path d="M99.4284 72.7253H110.265V39.4487V36.2285H147.111V90.7053V142.23H110.265V134.716V108.954H91.8429H84.257H73.4202V142.23H36.846V90.9737V36.4968H73.691V39.7171V47.2312V72.9936H92.1137H99.4284V72.7253ZM41.1807 15.0281C30.8857 21.7371 21.9454 30.5929 15.1724 40.7905C8.67035 50.4514 4.06464 61.1859 1.89728 72.7253C0.542684 78.6292 0.000976562 84.8014 0.000976562 90.9737C0.000976562 97.146 0.542684 103.318 1.89728 109.222C9.21212 144.914 37.6588 172.823 73.4202 180.069C79.3804 181.142 85.6117 181.947 91.8429 181.947C98.074 181.947 104.305 181.411 110.265 180.069C121.915 177.654 133.023 173.092 142.505 166.919L177.183 201.269L203.191 175.507L168.513 141.157C175.015 131.496 179.621 120.762 181.788 109.222C182.872 103.318 183.685 97.146 183.685 90.9737C183.685 84.8014 183.143 78.6292 181.788 72.7253C174.473 37.0336 146.027 9.12416 110.265 1.87846C104.305 0.536669 98.074 0 91.8429 0C85.6117 0 79.3804 0.536669 73.4202 1.87846C61.7706 4.29369 50.9338 8.85586 41.1807 15.0281Z" fill="#4295A5"/>
</svg>
